# xmcd CD database file
#
# Track frame offsets:
#	150
#	13602
#	31904
#	47082
#	63025
#	78246
#	95383
#	114981
#	132347
#	151138
#	168060
#	186828
#
# Disc length: 2667 seconds
#
# Revision: 5
# Processed by: cddbd v1.5.2PL0 Copyright (c) Steve Scherf et al.
# Submitted via: CDex 1.40Release
#
DISCID=830a690c
DTITLE=Terri Clark - Life Goes On
DYEAR=2005
DGENRE=Country
TTITLE0=Life Goes On
TTITLE1=Damn Right
TTITLE2=She Didn't Have Time
TTITLE3=Cowboy Days
TTITLE4=Not Enough Tequila
TTITLE5=Bigger Windows
TTITLE6=I Wish He'd Been Drinking Whiskey
TTITLE7=Honky Tonk Song
TTITLE8=Travelin' Soul
TTITLE9=Everybody's Gotta Go Sometime
TTITLE10=Slow News Day
TTITLE11=Tear It All Down
EXTD=YEAR: 2005 ID3G: 2
EXTT0=
EXTT1=
EXTT2=
EXTT3=
EXTT4=
EXTT5=
EXTT6=
EXTT7=
EXTT8=
EXTT9=
EXTT10=
EXTT11=
PLAYORDER=
